<svg id="SvgjsSvg1014" width="288" height="288" xmlns="http://www.w3.org/2000/svg" version="1.1" xmlns:xlink="http://www.w3.org/1999/xlink" xmlns:svgjs="http://svgjs.com/svgjs"><defs id="SvgjsDefs1015"></defs><g id="SvgjsG1016" transform="matrix(0.9167,0,0,0.9167,11.995200000000011,11.995200000000011)"><svg xmlns="http://www.w3.org/2000/svg" viewBox="0 0 32 32" width="288" height="288"><path d="M11 5c-3.3 0-6 2.7-6 6v10c0 3.3 2.7 6 6 6h10c3.3 0 6-2.7 6-6V11c0-3.3-2.7-6-6-6zm0 2h10c2.219 0 4 1.781 4 4v10c0 2.219-1.781 4-4 4H11c-2.219 0-4-1.781-4-4V11c0-2.219 1.781-4 4-4zm-.563 5.844c-.32 0-.562.23-.562.531 0 .297.242.531.563.531.32 0 .562-.234.562-.531 0-.3-.242-.531-.563-.531zM20.845 13c-1.25 0-2.063.668-2.063 1.688 0 .84.465 1.351 1.5 1.593l.719.188c.758.18 1.094.437 1.094.875 0 .508-.504.875-1.219.875-.766 0-1.3-.364-1.375-.907h-.875c.063 1.024.887 1.688 2.156 1.688C22.137 19 23 18.312 23 17.219c0-.86-.484-1.32-1.656-1.594l-.625-.156c-.746-.176-1.063-.438-1.063-.844 0-.516.485-.844 1.188-.844.668 0 1.105.348 1.187.875h.875c-.05-.965-.902-1.656-2.062-1.656zm-5.875.031c-1.653 0-2.688 1.153-2.688 3 0 1.844 1.012 3 2.688 3 1.672 0 2.687-1.16 2.687-3 0-1.843-1.027-3-2.687-3zm0 .844c1.094 0 1.781.828 1.781 2.156 0 1.32-.688 2.188-1.781 2.188-1.106 0-1.75-.867-1.75-2.188 0-1.328.664-2.156 1.75-2.156zM9.938 15v4h1v-4z" fill="#ffffff" class="color000 svgShape"></path></svg></g></svg>