<?xml version="1.0" encoding="UTF-8" standalone="no"?><svg xmlns="http://www.w3.org/2000/svg" viewBox="0 0 154 298"><title>Iphone X</title><g id="Layer_2" data-name="Layer 2"><g id="Layer_1-2" data-name="Layer 1"><path d="M132.201 0H21.8A21.823 21.823 0 0 0 0 21.799V276.2A21.823 21.823 0 0 0 21.799 298H132.2A21.823 21.823 0 0 0 154 276.201V21.8A21.823 21.823 0 0 0 132.201 0zM144 276.201A11.799 11.799 0 0 1 132.201 288H21.8A11.799 11.799 0 0 1 10 276.201V21.8A11.799 11.799 0 0 1 21.799 10h17.439a4.701 4.701 0 0 1 4.6 3.733l.975 4.629A7.1 7.1 0 0 0 51.762 24h51.476a7.1 7.1 0 0 0 6.949-5.638l.974-4.63A4.701 4.701 0 0 1 115.762 10h16.44A11.799 11.799 0 0 1 144 21.799z"/><path d="M86.348 124.993c-8.604 1.25-9.51 8.369-9.32 11.104 4.47.452 10.384-5.502 9.32-11.104z"/><path d="M90.15 150.55a10.667 10.667 0 0 1 5.066-9.186 12.488 12.488 0 0 0-8.24-4.633c-4.428-.799-6.192 2.067-9.57 2.067-3.356 0-4.727-2.195-7.983-2.209a8.333 8.333 0 0 0-1.52.142c-19.184 3.676-7.01 36.376 1.96 36.269 3.213 0 4.666-1.98 8.11-1.98s4.614 1.98 7.828 1.98c3.763.044 8.14-5.74 10.482-12.705a10.562 10.562 0 0 1-6.132-9.746z"/></g></g><metadata><rdf:RDF xmlns:rdf="http://www.w3.org/1999/02/22-rdf-syntax-ns#" xmlns:rdfs="http://www.w3.org/2000/01/rdf-schema#" xmlns:dc="http://purl.org/dc/elements/1.1/"><rdf:Description about="https://iconscout.com/legal#licenses" dc:title="iphone,x" dc:description="iphone,x" dc:publisher="Iconscout" dc:date="2017-09-12" dc:format="image/svg+xml" dc:language="en"><dc:creator><rdf:Bag><rdf:li>Dalpat Prajapati</rdf:li></rdf:Bag></dc:creator></rdf:Description></rdf:RDF></metadata></svg>