<svg id="SvgjsSvg1001" width="288" height="288" xmlns="http://www.w3.org/2000/svg" version="1.1" xmlns:xlink="http://www.w3.org/1999/xlink" xmlns:svgjs="http://svgjs.com/svgjs"><defs id="SvgjsDefs1002"></defs><g id="SvgjsG1008" transform="matrix(0.9167,0,0,0.9167,11.995200000000011,11.995200000000011)"><svg xmlns="http://www.w3.org/2000/svg" viewBox="0 0 154 298" width="288" height="288"><g data-name="Layer 2" fill="#ffffff" class="color000 svgShape"><g data-name="Layer 1" fill="#ffffff" class="color000 svgShape"><path d="M132.201 0H21.8A21.823 21.823 0 0 0 0 21.799V276.2A21.823 21.823 0 0 0 21.799 298H132.2A21.823 21.823 0 0 0 154 276.201V21.8A21.823 21.823 0 0 0 132.201 0zM144 276.201A11.799 11.799 0 0 1 132.201 288H21.8A11.799 11.799 0 0 1 10 276.201V21.8A11.799 11.799 0 0 1 21.799 10h17.439a4.701 4.701 0 0 1 4.6 3.733l.975 4.629A7.1 7.1 0 0 0 51.762 24h51.476a7.1 7.1 0 0 0 6.949-5.638l.974-4.63A4.701 4.701 0 0 1 115.762 10h16.44A11.799 11.799 0 0 1 144 21.799z" fill="#ffffff" class="color000 svgShape"></path><path d="M86.348 124.993c-8.604 1.25-9.51 8.369-9.32 11.104 4.47.452 10.384-5.502 9.32-11.104zM90.15 150.55a10.667 10.667 0 015.066-9.186 12.488 12.488 0 00-8.24-4.633c-4.428-.799-6.192 2.067-9.57 2.067-3.356 0-4.727-2.195-7.983-2.209a8.333 8.333 0 00-1.52.142c-19.184 3.676-7.01 36.376 1.96 36.269 3.213 0 4.666-1.98 8.11-1.98s4.614 1.98 7.828 1.98c3.763.044 8.14-5.74 10.482-12.705a10.562 10.562 0 01-6.132-9.746z" fill="#ffffff" class="color000 svgShape"></path></g></g></svg></g></svg>