<?xml version="1.0"?>
<svg xmlns="http://www.w3.org/2000/svg" xmlns:xlink="http://www.w3.org/1999/xlink" version="1.1" id="Capa_1" x="0px" y="0px" viewBox="0 0 512 512" style="enable-background:new 0 0 512 512;" xml:space="preserve" width="512px" height="512px" class=""><g><g>
	<g>
		<path d="M490.667,225.965V42.667C490.667,19.146,471.531,0,448,0H64C40.469,0,21.333,19.146,21.333,42.667v183.298    C8.944,230.383,0,242.112,0,256s8.944,25.617,21.333,30.035v183.298C21.333,492.854,40.469,512,64,512h384    c23.531,0,42.667-19.146,42.667-42.667V286.035C503.056,281.617,512,269.888,512,256S503.056,230.383,490.667,225.965z M256,32    c5.891,0,10.667,4.775,10.667,10.667c0,5.891-4.776,10.667-10.667,10.667s-10.667-4.776-10.667-10.667    C245.333,36.775,250.109,32,256,32z M85.333,74.667C85.333,68.771,90.104,64,96,64h320c5.896,0,10.667,4.771,10.667,10.667    v106.667c0,5.896-4.771,10.667-10.667,10.667H96c-5.896,0-10.667-4.771-10.667-10.667V74.667z M426.667,330.667    c0,5.891-4.776,10.667-10.667,10.667s-10.667-4.776-10.667-10.667c0-5.892,4.776-10.667,10.667-10.667    S426.667,324.775,426.667,330.667z M405.333,352c0,5.891-4.776,10.667-10.667,10.667S384,357.891,384,352    c0-5.892,4.776-10.667,10.667-10.667S405.333,346.108,405.333,352z M117.333,448h-10.667v10.667    c0,5.896-4.771,10.667-10.667,10.667s-10.667-4.771-10.667-10.667V448H74.667C68.771,448,64,443.229,64,437.333    c0-5.896,4.771-10.667,10.667-10.667h10.667V416c0-5.896,4.771-10.667,10.667-10.667s10.667,4.771,10.667,10.667v10.667h10.667    c5.896,0,10.667,4.771,10.667,10.667C128,443.229,123.229,448,117.333,448z M96,384c-17.646,0-32-14.354-32-32    c0-17.646,14.354-32,32-32s32,14.354,32,32C128,369.646,113.646,384,96,384z M362.667,458.667c0,5.896-4.771,10.667-10.667,10.667    H160c-5.896,0-10.667-4.771-10.667-10.667v-128c0-5.896,4.771-10.667,10.667-10.667h192c5.896,0,10.667,4.771,10.667,10.667    V458.667z M394.667,448c-5.891,0-10.667-4.776-10.667-10.667c0-5.892,4.776-10.667,10.667-10.667s10.667,4.775,10.667,10.667    C405.333,443.224,400.557,448,394.667,448z M416,384c-5.891,0-10.667-4.776-10.667-10.667c0-5.892,4.776-10.667,10.667-10.667    s10.667,4.775,10.667,10.667C426.667,379.224,421.891,384,416,384z M437.333,362.667c-5.891,0-10.667-4.776-10.667-10.667    c0-5.892,4.776-10.667,10.667-10.667S448,346.108,448,352C448,357.891,443.224,362.667,437.333,362.667z" data-original="#000000" class="active-path" data-old_color="#000000" fill="#FFFFFF"/>
	</g>
</g></g> </svg>
