<?xml version="1.0"?>
<svg xmlns="http://www.w3.org/2000/svg" xmlns:xlink="http://www.w3.org/1999/xlink" version="1.1" id="Capa_1" x="0px" y="0px" viewBox="0 0 511.999 511.999" style="enable-background:new 0 0 511.999 511.999;" xml:space="preserve" width="512px" height="512px" class=""><g><path id="SVGCleanerId_0" style="fill:#EAE8E8;" d="M454.04,306.269H57.96c-27.868,0-50.459-22.591-50.459-50.459  s22.591-50.46,50.459-50.46H454.04c27.868,0,50.459,22.592,50.459,50.46C504.5,283.678,481.908,306.269,454.04,306.269z" data-original="#EAE8E8" class=""/><g>
	<path id="SVGCleanerId_0_1_" style="fill:#EAE8E8;" d="M454.04,306.269H57.96c-27.868,0-50.459-22.591-50.459-50.459   s22.591-50.46,50.459-50.46H454.04c27.868,0,50.459,22.592,50.459,50.46C504.5,283.678,481.908,306.269,454.04,306.269z" data-original="#EAE8E8" class=""/>
</g><path style="fill:#D3D1D1;" d="M34.855,255.81c0-27.868,22.591-50.46,50.459-50.46H57.96c-27.868,0-50.459,22.592-50.459,50.46  c0,27.869,22.591,50.459,50.459,50.459h27.355C57.446,306.269,34.855,283.678,34.855,255.81z" data-original="#D3D1D1"/><path d="M143.651,229.068c0-1.104-0.896-2-2-2h-12.628c-1.104,0-2,0.896-2,2v5.976c0,1.105,0.896,2,2,2h12.628c1.104,0,2-0.895,2-2  V229.068z" data-original="#000000" class="active-path" style="fill:#564D4D" data-old_color="#000000"/><path d="M141.651,243.031h-12.628c-1.104,0-2,0.896-2,2v37.902c0,1.104,0.896,2,2,2h12.628c1.104,0,2-0.896,2-2v-37.902  C143.651,243.926,142.755,243.031,141.651,243.031z" data-original="#000000" class="active-path" style="fill:#564D4D" data-old_color="#000000"/><path d="M215.987,284.932h12.628c1.104,0,2-0.896,2-2v-36.535h7.831c1.105,0,2-0.895,2-2c0-5.871,0.37-4.817-9.832-4.817v-5.523  c0-1.105-0.896-2-2-2h-12.628c-1.105,0-2,0.895-2,2v5.523h-7.789c-1.105,0-2,0.896-2,2v2.817c0,1.105,0.895,2,2,2h7.789v36.535  C213.987,284.037,214.882,284.932,215.987,284.932z" data-original="#000000" class="active-path" style="fill:#564D4D" data-old_color="#000000"/><path d="M101.254,227.068c-1.104,0-2,0.896-2,2v36.549l-25.512-37.671c-0.372-0.549-0.992-0.878-1.656-0.878H58.521  c-1.104,0-2,0.896-2,2v53.864c0,1.104,0.896,2,2,2h12.628c1.104,0,2-0.896,2-2v-36.535c27.327,40.339,25.651,38.535,27.167,38.535  h13.567c1.104,0,2-0.896,2-2v-53.864c0-1.104-0.896-2-2-2L101.254,227.068L101.254,227.068z" data-original="#000000" class="active-path" style="fill:#564D4D" data-old_color="#000000"/><path d="M189.049,284.932h12.628c1.105,0,2-0.896,2-2v-20.613c0-9.049-5.273-19.309-18.136-19.33  c-0.783-0.033-0.489-0.073-1.591-0.073c-3.138,0-9.132,0.723-14.028,5.566c0-6.828,1.307-5.451-14.628-5.451c-1.105,0-2,0.896-2,2  v37.902c0,1.104,0.895,2,2,2h12.628c1.105,0,2-0.896,2-2v-26.048c2.401-7.409,17.127-10.543,17.127,5.433v20.613  C187.049,284.037,187.945,284.932,189.049,284.932z" data-original="#000000" class="active-path" style="fill:#564D4D" data-old_color="#000000"/><path d="M331.115,284.932h12.627c1.104,0,2-0.896,2-2v-20.613c0-0.367-0.064-9.047-5.658-14.651  c-3.091-3.096-7.288-4.67-12.477-4.679l-0.072-0.003c-0.104-0.012-0.662-0.07-1.519-0.07c-3.138,0-9.133,0.723-14.028,5.566v-3.451  c0-1.104-0.896-2-2-2H297.36c-1.104,0-2,0.896-2,2v37.902c0,1.104,0.896,2,2,2h12.628c1.104,0,2-0.896,2-2v-26.048  c0.672-2.07,3.377-5.984,8.814-5.984c7.233,0,8.313,7.153,8.313,11.419v20.613C329.115,284.037,330.01,284.932,331.115,284.932z" data-original="#000000" class="active-path" style="fill:#564D4D" data-old_color="#000000"/><path d="M406.482,263.981c0,11.553,10.992,20.951,24.502,20.951c13.507,0,24.495-9.399,24.495-20.951  c0-11.553-10.989-20.95-24.495-20.95C417.473,243.031,406.482,252.428,406.482,263.981z M438.741,255.834v17.881  c-0.131,0.188-0.23,0.4-0.291,0.632c-0.935,3.546-3.936,5.929-7.469,5.929s-6.535-2.383-7.468-5.929  c-0.059-0.222-0.152-0.427-0.275-0.608l-0.016-17.904c0-4.492,3.48-8.148,7.759-8.148  C435.259,247.686,438.741,251.341,438.741,255.834z" data-original="#000000" class="active-path" style="fill:#564D4D" data-old_color="#000000"/><path d="M286.036,274.601c0.423-0.612,0.471-1.407,0.125-2.065c-0.346-0.659-1.027-1.071-1.77-1.071h-9.687c-1.104,0-2,0.896-2,2  v0.251c-0.131,0.188-0.23,0.4-0.291,0.632c-0.934,3.546-3.935,5.929-7.468,5.929s-6.535-2.383-7.469-5.929  c-0.059-0.222-0.152-0.426-0.275-0.608l-0.016-9.758c32.175,0,30.75,0.324,31.634-0.676c0.379-0.431,0.556-1.003,0.484-1.572  c-1.333-10.662-11.804-18.702-24.354-18.702c-13.511,0-24.503,9.399-24.503,20.95C240.447,285.116,273.357,292.966,286.036,274.601z   M257.185,255.834c0-4.492,3.481-8.148,7.76-8.148c4.278,0,7.759,3.655,7.759,8.148v2.659h-15.519v-2.659H257.185z" data-original="#000000" class="active-path" style="fill:#564D4D" data-old_color="#000000"/><path d="M384.926,284.932h12.628c1.104,0,2-0.896,2-2v-53.864c0-1.104-0.896-2-2-2h-12.628c-1.104,0-2,0.896-2,2v17.878  c-3.39-2.561-7.371-3.915-11.516-3.915c-10.934,0-19.828,9.399-19.828,20.95c0,11.553,8.896,20.951,19.828,20.951  c4.143,0,8.125-1.354,11.516-3.916v1.916C382.926,284.037,383.822,284.932,384.926,284.932z M382.691,272.185  c-0.935,3.547-3.936,5.93-7.468,5.93c-3.534,0-6.536-2.383-7.469-5.93c-0.059-0.222-0.152-0.427-0.275-0.608l-0.016-13.581  c0-4.492,3.48-8.148,7.76-8.148c4.277,0,7.758,3.655,7.758,8.148v13.559C382.851,271.741,382.751,271.954,382.691,272.185z" data-original="#000000" class="active-path" style="fill:#564D4D" data-old_color="#000000"/><path d="M454.04,198.039h-5.528c-4.143,0-7.5,3.358-7.5,7.5c0,4.142,3.357,7.5,7.5,7.5h5.528c23.687,0,42.959,19.271,42.959,42.96  s-19.272,42.96-42.959,42.96h-180.54c-4.143,0-7.5,3.358-7.5,7.5s3.357,7.5,7.5,7.5H454.04c31.959,0,57.96-26.002,57.96-57.961  S485.999,198.039,454.04,198.039z" data-original="#000000" class="active-path" style="fill:#564D4D" data-old_color="#000000"/><path d="M238.498,298.959H57.96c-23.687,0-42.959-19.271-42.959-42.96s19.271-42.96,42.959-42.96h355.55c4.142,0,7.5-3.358,7.5-7.5  c0-4.142-3.358-7.5-7.5-7.5H57.96C26.001,198.039,0,224.041,0,256s26.001,57.961,57.96,57.961h180.539c4.142,0,7.5-3.358,7.5-7.5  C245.999,302.317,242.641,298.959,238.498,298.959z" data-original="#000000" class="active-path" style="fill:#564D4D" data-old_color="#000000"/></g> </svg>
