<?xml version="1.0"?>
<svg xmlns="http://www.w3.org/2000/svg" xmlns:xlink="http://www.w3.org/1999/xlink" version="1.1" id="Capa_1" x="0px" y="0px" viewBox="0 0 512 512" style="enable-background:new 0 0 512 512;" xml:space="preserve" width="512px" height="512px"><g><g>
	<g>
		<path d="M342.656,15.42c-53.952-20.512-119.392-20.512-173.312,0c-6.144,2.336-10.272,8.224-10.304,14.848    c-0.032,6.624,4,12.576,10.144,15.008c26.976,10.592,53.12,24.64,77.664,41.728c2.752,1.92,5.952,2.88,9.152,2.88    s6.4-0.96,9.152-2.88c24.576-17.12,50.72-31.168,77.664-41.76c6.144-2.4,10.176-8.352,10.144-14.976    C352.928,23.676,348.832,17.756,342.656,15.42z M256,54.556c-11.008-7.264-22.304-13.952-33.856-20.064    c22.016-3.36,45.696-3.36,67.712,0C278.304,40.604,267.04,47.292,256,54.556z" data-original="#000000" class="active-path" data-old_color="#000000" fill="#FFFFFF"/>
	</g>
</g><g>
	<g>
		<path d="M451.776,405.34c-44.032-97.248-106.208-183.744-184.864-257.088c-6.176-5.728-15.712-5.696-21.824,0    C166.72,221.308,104.704,307.42,60.736,404.188c-3.968,6.272-2.976,14.624,2.624,20c6.4,6.112,16.704,5.696,22.784-0.672    c1.248-1.312,2.272-2.848,3.008-4.48C129.344,330.012,185.44,250.332,256,182.044c70.496,68.288,126.624,147.936,166.848,236.96    c0.736,1.536,1.632,2.944,2.752,4.16l0.32,0.352c3.104,3.424,7.328,5.152,11.584,5.152c3.872,0,7.744-1.376,10.848-4.224    C453.76,419.516,454.944,411.612,451.776,405.34z" data-original="#000000" class="active-path" data-old_color="#000000" fill="#FFFFFF"/>
	</g>
</g><g>
	<g>
		<path d="M401.056,45.34C396,41.884,389.408,41.564,384,44.668c-29.856,17.216-58.848,36.928-86.08,58.624    c-3.648,2.88-5.824,7.168-6.016,11.808c-0.224,4.608,1.6,9.088,4.928,12.288c75.712,72.128,120.96,173.344,124.736,278.88    C379.616,453.18,319.584,479.964,256,479.964c-63.424,0-123.296-26.624-165.568-73.664    c3.712-105.376,48.992-206.72,124.768-278.912c3.36-3.2,5.12-7.648,4.928-12.288c-0.192-4.64-2.4-8.928-6.016-11.808    C186.848,81.596,157.888,61.884,128,44.668c-5.344-3.072-12-2.784-17.088,0.672C41.472,93.212,0,171.932,0,255.964    c0,60.224,21.216,118.272,60.032,164.096c1.088,2.048,2.624,3.84,4.48,5.216c48.064,55.136,117.664,86.688,191.488,86.688    c74.912,0,145.472-32.512,193.824-89.344C489.92,376.604,512,317.404,512,255.964C512,171.932,470.528,93.212,401.056,45.34z     M61.504,366.812C42.304,333.404,32,295.228,32,255.964c0-70.144,33.056-136.096,88.896-178.368    c20.256,12.096,40.032,25.408,59.072,39.712C114.976,184.924,73.216,273.212,61.504,366.812z M332.032,117.308    c19.04-14.304,38.816-27.616,59.072-39.712C446.944,119.868,480,185.82,480,255.964c0,39.136-10.24,77.216-29.504,110.688    C438.816,273.276,397.056,184.924,332.032,117.308z" data-original="#000000" class="active-path" data-old_color="#000000" fill="#FFFFFF"/>
	</g>
</g></g> </svg>
